<?xml version="1.0" encoding="UTF-8"?>
<svg width="125px" height="40px" viewBox="0 0 125 40" version="1.1" xmlns="http://www.w3.org/2000/svg" xmlns:xlink="http://www.w3.org/1999/xlink">
    <!-- Generator: Sketch 63.1 (92452) - https://sketch.com -->
    <title>logo_applepodcasts_onlight</title>
    <desc>Created with Sketch.</desc>
    <defs>
        <linearGradient x1="50%" y1="0%" x2="50%" y2="100%" id="linearGradient-1">
            <stop stop-color="#F452FF" offset="0%"></stop>
            <stop stop-color="#832BC1" offset="100%"></stop>
        </linearGradient>
    </defs>
    <g id="logo_applepodcasts_onlight" stroke="none" stroke-width="1" fill="none" fill-rule="evenodd">
        <g id="Group-2" transform="translate(0.000000, 6.000000)">
            <path d="M27.419601,24.2451375 C27.1476883,24.9358134 26.520266,25.9082958 25.6304913,26.5933022 C25.1167921,26.9889429 24.5034878,27.3671305 23.66107,27.6166988 C22.763069,27.8828308 21.6569648,27.9727643 20.2802819,27.9727643 L7.69259355,27.9727643 C6.31602184,27.9727643 5.20991762,27.8828308 4.31180546,27.6166988 C3.46938759,27.3671305 2.85619454,26.9889429 2.34238412,26.5933022 C1.4527206,25.9081846 0.825187097,24.9358134 0.553274442,24.2451375 C0.00555831266,22.8535583 -2.17218027e-14,21.274664 -2.17218027e-14,20.2802819 L-2.17218027e-14,20.2802819 L-2.17218027e-14,7.69248238 L-2.17218027e-14,7.69248238 C-2.17218027e-14,6.69810025 0.00555831266,5.11920596 0.553274442,3.7276268 C0.825187097,3.03695087 1.45260943,2.06446849 2.34238412,1.37946203 C2.85608337,0.98382134 3.46938759,0.605633747 4.31180546,0.356065509 C5.20980645,0.0899334988 6.31591067,5.92412802e-15 7.69259355,5.92412802e-15 L7.69259355,5.92412802e-15 L20.2803931,5.92412802e-15 L20.2803931,5.92412802e-15 C21.6569648,5.92412802e-15 22.763069,0.0899334988 23.6611811,0.356065509 C24.503599,0.605633747 25.1167921,0.983932506 25.6306025,1.37946203 C26.520266,2.06457965 27.1477995,3.03695087 27.4197122,3.7276268 C27.9674283,5.11920596 27.9729866,6.69810025 27.9729866,7.69248238 L27.9729866,20.2802819 C27.9729866,21.2745529 27.9673171,22.8534471 27.419601,24.2451375 Z" id="XMLID_662_" fill="url(#linearGradient-1)"></path>
            <g id="XMLID_648_" transform="translate(3.872254, 2.869979)" fill="#FFFFFF" fill-rule="nonzero">
                <path d="M12.1429122,13.2082184 C11.7231484,12.765332 10.9858938,12.4814134 10.1155732,12.4814134 C9.24514144,12.4814134 8.50788685,12.765332 8.08812308,13.2082184 C7.86912556,13.439333 7.75329032,13.6762283 7.71682779,14.013729 C7.64612605,14.6672754 7.68581241,15.229999 7.76240596,16.1296675 C7.83533102,16.9869816 7.97384417,18.1302154 8.1546005,19.2945707 C8.28321985,20.123204 8.38771613,20.5704258 8.48287444,20.8906958 C8.6371732,21.409731 9.21379256,21.8636228 10.1155732,21.8636228 C11.0172427,21.8636228 11.593862,21.4096199 11.7481608,20.8906958 C11.8433191,20.5704258 11.9478154,20.123204 12.0764347,19.2945707 C12.2571911,18.1302154 12.3957042,16.9869816 12.4686293,16.1296675 C12.5452228,15.2298878 12.5849092,14.6671643 12.5142074,14.013729 C12.4777449,13.6763395 12.3619097,13.439333 12.1429122,13.2082184 Z M7.82843871,9.26481787 C7.82843871,10.5291117 8.85339156,11.5540645 10.1176854,11.5540645 C11.3820903,11.5540645 12.4070432,10.5291117 12.4070432,9.26481787 C12.4070432,8.0004129 11.3820903,6.97546005 10.1176854,6.97546005 C8.85339156,6.97546005 7.82843871,8.0004129 7.82843871,9.26481787 Z M10.089338,0.230295491 C4.73523772,0.245566253 0.348061538,4.58916526 0.281806452,9.94293201 C0.228001985,14.279861 2.99648635,17.9897012 6.8622928,19.3494868 C6.95611712,19.3825032 7.0513866,19.3045757 7.03660149,19.2061935 C6.98590968,18.869471 6.93810819,18.5310809 6.89419752,18.1983603 C6.87863424,18.0807464 6.80370819,17.9793628 6.69509876,17.9318948 C3.63958313,16.5970104 1.50596923,13.5326015 1.54020844,9.98295186 C1.5851196,5.32464119 5.38900645,1.52697965 10.0473171,1.48929429 C14.8095682,1.45083077 18.6960516,5.31363573 18.6960516,10.0671047 C18.6960516,13.5811811 16.5717757,16.6080159 13.5400496,17.9322283 C13.4314402,17.9796963 13.3569588,18.0814134 13.3415067,18.1989161 C13.297596,18.5315256 13.2497945,18.8698045 13.1992139,19.2061935 C13.1843176,19.3045757 13.2795871,19.3825032 13.3734114,19.349598 C17.2023107,18.0028189 19.9546759,14.3506739 19.9546759,10.0672159 C19.9544536,4.6335206 15.5263682,0.214773201 10.089338,0.230295491 Z M9.91158313,4.74313052 C12.9467553,4.62562779 15.453332,7.0606134 15.453332,10.0701062 C15.453332,11.6006432 14.8048993,12.9824397 13.7684963,13.9555891 C13.6805638,14.0380744 13.6333181,14.1552437 13.6400993,14.2756367 C13.6607762,14.6417072 13.6532169,14.9974392 13.6288715,15.399194 C13.6223127,15.5062471 13.7423722,15.5746144 13.8309717,15.5142511 C15.5689449,14.3265509 16.7120675,12.3294491 16.7120675,10.0701062 C16.7120675,6.35003871 13.6134194,3.33999007 9.86166948,3.48539553 C6.37505112,3.6205737 3.57777469,6.49522184 3.53308586,9.98428586 C3.50373797,12.2789797 4.65386402,14.3118769 6.41418164,15.5144734 C6.50255881,15.5748367 6.62228486,15.5063583 6.61572605,15.3994164 C6.59126948,14.9974392 6.58382134,14.6417072 6.6043871,14.2756367 C6.61116824,14.1553548 6.56403375,14.0381856 6.47632357,13.9558114 C5.40757122,12.9524248 4.75124566,11.5144893 4.79304417,9.92703524 C4.86663623,7.1334273 7.11897568,4.85129529 9.91158313,4.74313052 Z" id="Shape"></path>
            </g>
        </g>
        <g id="Group-3" transform="translate(32.000000, 14.000000)" fill="#000000" fill-rule="nonzero">
            <path d="M6.1236,7.04707776 L2.44290816,7.04707776 L1.55901024,9.6570144 L0,9.6570144 L3.48629184,7.776e-05 L5.10603264,7.776e-05 L8.59232448,9.6570144 L7.00672032,9.6570144 L6.1236,7.04707776 Z M2.82408768,5.84265312 L5.74164288,5.84265312 L4.30339392,1.6061328 L4.26311424,1.6061328 L2.82408768,5.84265312 Z" id="Shape"></path>
            <path d="M16.1215142,6.13728576 C16.1215142,8.32506336 14.9505264,9.73065312 13.1835082,9.73065312 C12.1804042,9.73065312 11.383753,9.28190016 10.9684368,8.49893472 L10.935,8.49893472 L10.935,11.9860042 L9.48990816,11.9860042 L9.48990816,2.61685728 L10.888655,2.61685728 L10.888655,3.78784512 L10.915249,3.78784512 C11.3169571,3.0322512 12.1735613,2.54321856 13.1569142,2.54321856 C14.9436835,2.54321856 16.1215142,3.9556512 16.1215142,6.13728576 Z M14.6361427,6.13728576 C14.6361427,4.71194496 13.8995222,3.7748592 12.775657,3.7748592 C11.6715427,3.7748592 10.928857,4.731696 10.928857,6.13728576 C10.928857,7.55578368 11.6715427,8.5057776 12.775657,8.5057776 C13.8996,8.5057776 14.6361427,7.57561248 14.6361427,6.13728576 Z" id="Shape"></path>
            <path d="M23.8701427,6.13728576 C23.8701427,8.32506336 22.6991549,9.73065312 20.9321366,9.73065312 C19.9290326,9.73065312 19.1324592,9.28190016 18.7170653,8.49893472 L18.6836285,8.49893472 L18.6836285,11.9860042 L17.2385366,11.9860042 L17.2385366,2.61685728 L18.6372835,2.61685728 L18.6372835,3.78784512 L18.6638774,3.78784512 C19.0655856,3.0322512 19.9221898,2.54321856 20.9055427,2.54321856 C22.6923898,2.54321856 23.8701427,3.9556512 23.8701427,6.13728576 Z M22.384849,6.13728576 C22.384849,4.71194496 21.6482285,3.7748592 20.5243632,3.7748592 C19.420249,3.7748592 18.6775632,4.731696 18.6775632,6.13728576 C18.6775632,7.55578368 19.420249,8.5057776 20.5243632,8.5057776 C21.6482285,8.5057776 22.384849,7.57561248 22.384849,6.13728576 Z" id="Shape"></path>
            <polygon id="Path" points="25.040353 7.776e-05 26.4862224 7.776e-05 26.4862224 9.6570144 25.040353 9.6570144"></polygon>
            <path d="M34.0101245,7.58922048 C33.8157245,8.86728384 32.5710979,9.74433888 30.9787286,9.74433888 C28.9306858,9.74433888 27.6594653,8.37218592 27.6594653,6.17072256 C27.6594653,3.96249408 28.9375286,2.5303104 30.9179203,2.5303104 C32.8657306,2.5303104 34.0906061,3.86832672 34.0906061,6.00291648 L34.0906061,6.4980144 L29.1182429,6.4980144 L29.1182429,6.58533888 C29.1182429,7.78968576 29.8746144,8.57949408 31.0120877,8.57949408 C31.8147264,8.57949408 32.4442714,8.19831456 32.6378938,7.58929824 L34.0101245,7.58929824 L34.0101245,7.58922048 Z M29.125008,5.48806752 L32.6447366,5.48806752 C32.6112998,4.4105472 31.9218019,3.70122048 30.9179203,3.70122048 C29.9208816,3.70122048 29.1987245,4.4241552 29.125008,5.48806752 Z" id="Shape"></path>
            <path d="M41.7876019,7.776e-05 C43.6609958,7.776e-05 44.966353,1.29174912 44.966353,3.17276352 C44.966353,5.0598432 43.6344019,6.35757984 41.7405571,6.35757984 L39.6659203,6.35757984 L39.6659203,9.65709216 L38.1669408,9.65709216 L38.1669408,7.776e-05 L41.7876019,7.776e-05 Z M39.6659203,5.10004512 L41.3858938,5.10004512 C42.6904733,5.10004512 43.433159,4.39686144 43.433159,3.1796064 C43.433159,1.96157376 42.6904733,1.26484416 41.3927366,1.26484416 L39.6659203,1.26484416 L39.6659203,5.10004512 L39.6659203,5.10004512 Z" id="Shape"></path>
            <path d="M45.4941101,6.13728576 C45.4941101,3.9222144 46.7986896,2.53023264 48.8330467,2.53023264 C50.8742467,2.53023264 52.172761,3.92213664 52.172761,6.13728576 C52.172761,8.3584224 50.8810896,9.74433888 48.8330467,9.74433888 C46.7857814,9.74433888 45.4941101,8.35850016 45.4941101,6.13728576 Z M50.7003754,6.13728576 C50.7003754,4.6177776 50.0040346,3.72097152 48.8330467,3.72097152 C47.6620589,3.72097152 46.9657181,4.62462048 46.9657181,6.13728576 C46.9657181,7.6628592 47.6620589,8.5528224 48.8330467,8.5528224 C50.0040346,8.5528224 50.7003754,7.66293696 50.7003754,6.13728576 Z" id="Shape"></path>
            <path d="M53.1873734,6.13728576 C53.1873734,3.96241632 54.3848774,2.5431408 56.1314448,2.5431408 C57.1421693,2.5431408 57.9387427,3.0116448 58.3396733,3.78776736 L58.3670448,3.78776736 L58.3670448,7.73525244e-14 L59.8189795,7.73525244e-14 L59.8189795,9.65693664 L58.4133898,9.65693664 L58.4133898,8.45943264 L58.3867958,8.45943264 C57.9721795,9.26207136 57.1687632,9.73065312 56.1451306,9.73065312 C54.3848774,9.73065312 53.1873734,8.3121552 53.1873734,6.13728576 Z M54.6658243,6.13728576 C54.6658243,7.5823776 55.4024448,8.5057776 56.5263101,8.5057776 C57.6372672,8.5057776 58.379953,7.56869184 58.379953,6.13728576 C58.379953,4.71801024 57.6372672,3.7748592 56.5263101,3.7748592 C55.4024448,3.77493696 54.6658243,4.70510208 54.6658243,6.13728576 Z" id="Shape"></path>
            <path d="M65.9683958,5.0392368 C65.8415693,4.29655104 65.2591469,3.74150016 64.309153,3.74150016 C63.1981958,3.74150016 62.4615754,4.67174304 62.4615754,6.13736352 C62.4615754,7.63634304 63.2050387,8.53929216 64.3220611,8.53929216 C65.2188672,8.53929216 65.8081325,8.09123904 65.9683958,7.27491456 L67.3602998,7.27491456 C67.2000365,8.7534432 66.0154406,9.74441664 64.309153,9.74441664 C62.3013898,9.74441664 60.9898896,8.37226368 60.9898896,6.13736352 C60.9898896,3.94880832 62.301312,2.5303104 64.2954672,2.5303104 C66.1019875,2.5303104 67.2266304,3.66786144 67.3473917,5.03931456 L65.9683958,5.03931456 L65.9683958,5.0392368 Z" id="Path"></path>
            <path d="M68.245753,7.65609408 C68.245753,6.42515328 69.188904,5.68168992 70.8618326,5.58145728 L72.7891142,5.47438176 L72.7891142,4.93900416 C72.7891142,4.15611648 72.2742653,3.71412864 71.3979101,3.71412864 C70.5944938,3.71412864 70.0325222,4.09608576 69.9186816,4.70510208 L68.5669795,4.70510208 C68.6072592,3.43318176 69.7910774,2.53023264 71.4374122,2.53023264 C73.1171837,2.53023264 74.2281408,3.44678976 74.2281408,4.83192864 L74.2281408,9.6570144 L72.8430797,9.6570144 L72.8430797,8.49893472 L72.8096429,8.49893472 C72.4010918,9.2818224 71.5111286,9.77769792 70.5877286,9.77769792 C69.2094326,9.77777568 68.245753,8.92117152 68.245753,7.65609408 Z M72.7891142,7.02048384 L72.7891142,6.47826336 L71.0562326,6.58533888 C70.1927856,6.63922656 69.7045306,7.01364096 69.7045306,7.6158144 C69.7045306,8.2316736 70.2133142,8.63338176 70.9894368,8.63338176 C72.0000835,8.63338176 72.7891142,7.93704096 72.7891142,7.02048384 Z" id="Shape"></path>
            <path d="M78.2619408,2.53715328 C79.8217286,2.53715328 80.938751,3.39982272 80.9721878,4.64444928 L79.6136429,4.64444928 C79.5536899,4.0225248 79.0251552,3.64134528 78.2217389,3.64134528 C77.4388512,3.64134528 76.9171594,4.00207392 76.9171594,4.55105952 C76.9171594,4.97251872 77.2649798,5.2534656 77.9946797,5.43417984 L79.1792755,5.70906144 C80.5977734,6.05003904 81.133151,6.57173088 81.133151,7.60290624 C81.133151,8.87412672 79.9288042,9.74433888 78.2088307,9.74433888 C76.5488102,9.74433888 75.4317878,8.8938 75.3247123,7.60897152 L76.7561184,7.60897152 C76.8571286,8.28478368 77.3985715,8.64628992 78.2756266,8.64628992 C79.1390736,8.64628992 79.6812163,8.29162656 79.6812163,7.7297328 C79.6812163,7.29458784 79.4131776,7.06068576 78.6773347,6.87312864 L77.4190224,6.56558784 C76.1471021,6.25726944 75.504649,5.6080512 75.504649,4.63146336 C75.504649,3.3868368 76.622449,2.53715328 78.2619408,2.53715328 Z" id="Path"></path>
            <path d="M84.2730998,0.95038272 L84.2730998,2.61685728 L85.6118938,2.61685728 L85.6118938,3.7612512 L84.2730998,3.7612512 L84.2730998,7.64240832 C84.2730998,8.24535936 84.5411386,8.52630624 85.129704,8.52630624 C85.2770592,8.52630624 85.5116611,8.5057776 85.6050509,8.49286944 L85.6050509,9.63042048 C85.4447875,9.67070016 85.1236387,9.69721632 84.8024122,9.69721632 C83.3770714,9.69721632 82.8211651,9.16183872 82.8211651,7.79652864 L82.8211651,3.76117344 L81.7975325,3.76117344 L81.7975325,2.61685728 L82.8211651,2.61685728 L82.8211651,0.95038272 L84.2730998,0.95038272 Z" id="Path"></path>
            <path d="M89.4976387,2.53715328 C91.0574266,2.53715328 92.174449,3.39982272 92.2078858,4.64444928 L90.8493408,4.64444928 C90.7893878,4.0225248 90.2608531,3.64134528 89.4574368,3.64134528 C88.6745491,3.64134528 88.1528573,4.00207392 88.1528573,4.55105952 C88.1528573,4.97251872 88.5006778,5.2534656 89.2303776,5.43417984 L90.4149734,5.70906144 C91.8334714,6.05003904 92.368849,6.57173088 92.368849,7.60290624 C92.368849,8.87412672 91.1645021,9.74433888 89.4445286,9.74433888 C87.7845082,9.74433888 86.6674858,8.8938 86.5604102,7.60897152 L87.9918163,7.60897152 C88.0928266,8.28478368 88.6342694,8.64628992 89.5113245,8.64628992 C90.3747715,8.64628992 90.9169142,8.29162656 90.9169142,7.7297328 C90.9169142,7.29458784 90.6488755,7.06068576 89.9130326,6.87312864 L88.6547203,6.56558784 C87.3828,6.25726944 86.7403469,5.6080512 86.7403469,4.63146336 C86.7403469,3.3868368 87.8581469,2.53715328 89.4976387,2.53715328 Z" id="Path"></path>
        </g>
    </g>
</svg>