<?xml version="1.0" encoding="utf-8"?>
<!-- Generator: Adobe Illustrator 21.1.0, SVG Export Plug-In . SVG Version: 6.00 Build 0)  -->
<svg version="1.1" xmlns="http://www.w3.org/2000/svg" xmlns:xlink="http://www.w3.org/1999/xlink" x="0px" y="0px"
	 viewBox="0 0 125 40" enable-background="new 0 0 125 40" xml:space="preserve">
<g id="bg" display="none">
	<rect display="inline" fill="#FFFFFF" width="125" height="40"/>
</g>
<g id="icons">
	<g id="_x35_zIgvB.tif">
		<g>
			<path fill="#9014FD" d="M0,20.361c0.033-3.905,0.872-7.232,2.755-10.26C4.323,7.58,6.4,5.608,9.126,4.37
				c1.254-0.57,2.568-0.92,3.944-1.033c3.685-0.304,6.858,0.895,9.589,3.319c2.421,2.149,3.969,4.85,4.871,7.94
				c0.567,1.943,0.821,3.929,0.752,5.949c-0.133,3.897-1.245,7.475-3.618,10.606c-1.854,2.446-4.199,4.237-7.187,5.073
				c-3.617,1.013-7.011,0.428-10.149-1.602c-2.602-1.683-4.42-4.04-5.689-6.842c-0.771-1.702-1.25-3.489-1.479-5.339
				C0.06,21.634,0.034,20.818,0,20.361z M17.454,31.971c4.496-2.755,6.584-6.81,6.803-11.933c-0.227-5.123-2.323-9.173-6.804-11.908
				c-0.405,0.668-0.784,1.294-1.154,1.904c3.745,2.315,5.642,5.682,5.647,10.005c0.005,4.338-1.898,7.713-5.647,10.027
				C16.668,30.675,17.043,31.292,17.454,31.971z M14.625,19.11c-0.152,0-0.27,0-0.388,0c-2.118,0-4.236-0.003-6.354,0.005
				c-0.237,0.001-0.384-0.054-0.531-0.264c-0.483-0.689-1.406-0.952-2.207-0.669c-0.798,0.282-1.314,1.034-1.289,1.881
				c0.023,0.792,0.582,1.506,1.374,1.754c0.792,0.248,1.672-0.042,2.157-0.743c0.127-0.183,0.251-0.253,0.471-0.252
				c2.151,0.008,4.301,0.005,6.452,0.005c0.092,0,0.184,0.011,0.351,0.021c-0.194,0.403-0.345,0.773-0.544,1.116
				c-0.379,0.654-1.003,1.033-1.683,1.369c0.19,0.322,0.365,0.619,0.54,0.917c0.179,0.304,0.359,0.609,0.535,0.908
				c2.289-1.009,3.385-3.145,3.357-5.298c-0.03-2.302-1.273-4.28-3.36-5.168c-0.35,0.592-0.703,1.186-1.079,1.821
				C13.58,17.017,14.349,17.835,14.625,19.11z M15.47,11.239c-0.385,0.653-0.741,1.255-1.097,1.86
				c2.643,1.539,3.935,3.859,3.932,6.837c-0.003,2.975-1.306,5.289-3.934,6.814c0.368,0.622,0.725,1.224,1.102,1.86
				c3.335-1.967,4.983-4.918,4.986-8.678C20.46,16.172,18.82,13.216,15.47,11.239z"/>
			<path fill="#9014FD" d="M35.465,30.119c-1.277,0-2.535,0-3.851,0c2.28-6.695,4.551-13.365,6.827-20.046c1.527,0,3.045,0,4.593,0
				c2.186,6.661,4.373,13.328,6.573,20.031c-1.312,0-2.575,0-3.864,0c-0.119-0.367-0.238-0.736-0.357-1.105
				c-0.316-0.98-0.639-1.958-0.942-2.941c-0.067-0.217-0.165-0.279-0.389-0.278c-2.282,0.009-4.563,0.009-6.845,0
				c-0.239-0.001-0.337,0.074-0.409,0.299c-0.39,1.229-0.798,2.453-1.202,3.678C35.56,29.878,35.511,29.997,35.465,30.119z
				 M43.454,23.028c-0.928-2.878-1.844-5.717-2.781-8.62c-0.959,2.912-1.894,5.752-2.838,8.62
				C39.736,23.028,41.568,23.028,43.454,23.028z"/>
			<path fill="#9014FD" d="M83.082,8.919c1.213,0,2.403,0,3.622,0c0,2.835,0,5.653,0,8.472c0.018,0.006,0.036,0.012,0.053,0.018
				c0.069-0.103,0.14-0.205,0.207-0.309c0.69-1.08,1.589-1.915,2.862-2.217c1.693-0.403,3.328-0.23,4.812,0.74
				c0.936,0.612,1.48,1.539,1.863,2.566c0.381,1.02,0.503,2.087,0.507,3.166c0.01,2.836,0.004,5.672,0.003,8.508
				c0,0.074-0.007,0.149-0.013,0.245c-1.201,0-2.391,0-3.636,0c0-0.119,0-0.243,0-0.367c0-2.738,0.009-5.476-0.008-8.214
				c-0.003-0.516-0.059-1.045-0.185-1.544c-0.295-1.16-1.198-1.836-2.386-1.983c-1.933-0.24-3.182,1.149-3.659,2.548
				c-0.308,0.903-0.411,1.838-0.411,2.788c0.001,2.13,0,4.259,0,6.389c0,0.119,0,0.237,0,0.381c-1.217,0-2.414,0-3.631,0
				C83.082,23.049,83.082,16.002,83.082,8.919z"/>
			<path fill="#9014FD" d="M106.302,30.565c-1.044-0.006-2.06-0.159-3.023-0.561c-2.002-0.836-3.279-2.333-3.901-4.394
				c-0.404-1.337-0.468-2.707-0.347-4.093c0.097-1.125,0.348-2.205,0.873-3.21c0.941-1.798,2.407-2.932,4.382-3.388
				c1.634-0.377,3.259-0.316,4.841,0.25c1.987,0.712,3.239,2.162,3.928,4.114c0.476,1.348,0.587,2.748,0.487,4.172
				c-0.076,1.081-0.271,2.132-0.737,3.114c-1.072,2.262-2.836,3.591-5.337,3.901C107.082,30.518,106.691,30.534,106.302,30.565z
				 M102.639,22.925c0.056,0.388,0.106,1.085,0.264,1.756c0.4,1.695,1.581,2.651,3.222,2.677c1.613,0.025,2.916-0.863,3.431-2.389
				c0.522-1.546,0.491-3.115,0.059-4.676c-0.372-1.345-1.41-2.376-3.04-2.442c-1.423-0.058-2.741,0.672-3.372,1.952
				C102.764,20.695,102.685,21.653,102.639,22.925z"/>
			<path fill="#9014FD" d="M54.9,30.111c-1.239,0-2.429,0-3.635,0c0-5.002,0-9.986,0-14.996c1.045,0,2.091,0,3.165,0
				c0.131,0.824,0.262,1.653,0.396,2.504c0.268-0.393,0.492-0.765,0.759-1.104c0.821-1.041,1.907-1.61,3.219-1.77
				c0.941-0.115,1.865-0.044,2.767,0.239c1.36,0.426,2.268,1.357,2.871,2.618c0.505,1.057,0.73,2.184,0.739,3.343
				c0.024,2.999,0.014,5.998,0.016,8.997c0,0.052-0.01,0.103-0.017,0.171c-1.207,0-2.396,0-3.632,0c0-0.131,0-0.257,0-0.383
				c0-2.749,0.001-5.498-0.001-8.247c-0.001-0.621-0.053-1.236-0.291-1.82c-0.403-0.99-1.16-1.532-2.201-1.643
				c-1.795-0.193-3.153,0.751-3.757,2.568c-0.294,0.884-0.399,1.797-0.4,2.725c-0.001,2.141,0,4.281,0,6.422
				C54.9,29.85,54.9,29.967,54.9,30.111z"/>
			<path fill="#9014FD" d="M80.586,20.163c-1.228,0.031-2.44,0.062-3.653,0.093c-0.117-0.283-0.203-0.551-0.333-0.797
				c-0.368-0.696-0.867-1.288-1.676-1.428c-1.254-0.217-2.562,0.162-3.326,1.452c-0.383,0.647-0.603,1.347-0.68,2.087
				c-0.12,1.153-0.121,2.304,0.293,3.408c0.417,1.113,1.161,1.908,2.352,2.183c0.655,0.151,1.321,0.114,1.959-0.115
				c0.868-0.311,1.245-0.993,1.358-1.862c0.015-0.117,0.016-0.236,0.026-0.379c1.222,0,2.432,0,3.698,0
				c-0.037,0.364-0.049,0.73-0.115,1.086c-0.44,2.378-2.115,4.058-4.51,4.5c-1.533,0.283-3.051,0.249-4.498-0.415
				c-1.653-0.758-2.838-2.01-3.545-3.661c-1.128-2.634-1.107-5.302,0.172-7.871c1.024-2.058,2.74-3.314,5.036-3.666
				c1.804-0.276,3.508,0.018,5.006,1.132c1.335,0.992,2.128,2.32,2.387,3.964C80.551,19.96,80.566,20.044,80.586,20.163z"/>
			<path fill="#9014FD" d="M125,15.037c0,1.225,0,2.416,0,3.604c-0.562-0.047-1.077-0.107-1.594-0.13
				c-0.613-0.027-1.212,0.055-1.774,0.329c-0.894,0.436-1.376,1.197-1.663,2.108c-0.217,0.687-0.321,1.396-0.323,2.116
				c-0.007,2.227-0.007,4.454-0.01,6.681c0,0.116,0,0.233,0,0.366c-1.225,0-2.414,0-3.627,0c0-5.008,0-10.008,0-15.024
				c1.202,0,2.392,0,3.621,0c0,0.94,0,1.875,0,2.807c0.348-0.541,0.646-1.097,1.031-1.585C121.74,14.944,123.353,14.492,125,15.037z
				"/>
		</g>
	</g>
</g>
</svg>
