<?xml version="1.0" encoding="utf-8"?>
<!-- Generator: Adobe Illustrator 21.1.0, SVG Export Plug-In . SVG Version: 6.00 Build 0)  -->
<svg version="1.1" xmlns="http://www.w3.org/2000/svg" xmlns:xlink="http://www.w3.org/1999/xlink" x="0px" y="0px"
	 viewBox="0 0 125 40" enable-background="new 0 0 125 40" xml:space="preserve">
<g id="bg" display="none">
	<rect display="inline" fill="#FFFFFF" width="125" height="40"/>
</g>
<g id="icons">
	<g id="mCdyjG_1_">
		<g>
			<path fill="#F25C31" d="M0.007,20.006c0-2.791,0.012-5.582-0.005-8.373c-0.008-1.279,0.532-2.194,1.628-2.84
				c4.66-2.746,9.319-5.496,13.963-8.269c1.166-0.696,2.256-0.702,3.423-0.005c4.663,2.781,9.34,5.539,14.017,8.296
				c1.074,0.633,1.605,1.563,1.606,2.797c0.004,5.582,0.003,11.164,0.001,16.746c0,1.231-0.513,2.168-1.59,2.804
				c-4.694,2.77-9.386,5.544-14.07,8.331c-1.119,0.666-2.19,0.682-3.315,0.012c-4.666-2.777-9.339-5.542-14.019-8.295
				C0.525,30.551-0.011,29.619,0,28.316C0.023,25.547,0.007,22.776,0.007,20.006z M20.887,19.895c0-1.28,0.01-2.561-0.004-3.841
				c-0.007-0.722-0.429-1.186-1.075-1.235c-0.754-0.057-1.3,0.416-1.32,1.187c-0.021,0.839,0.006,1.679-0.01,2.519
				c-0.01,0.544-0.365,0.827-0.857,0.719c-0.405-0.089-0.512-0.378-0.51-0.753c0.005-1.112-0.002-2.225,0.004-3.337
				c0.002-0.471-0.127-0.871-0.547-1.13c-0.855-0.526-1.846,0.013-1.874,1.038c-0.024,0.902,0.003,1.805-0.009,2.708
				c-0.007,0.496-0.232,0.734-0.654,0.749c-0.443,0.015-0.717-0.247-0.746-0.744c-0.018-0.314,0.006-0.63-0.007-0.944
				c-0.022-0.521-0.286-0.868-0.766-1.037c-0.813-0.285-1.597,0.255-1.613,1.129c-0.015,0.797,0.009,1.595-0.01,2.393
				c-0.01,0.435-0.267,0.673-0.661,0.685c-0.405,0.012-0.661-0.209-0.718-0.633c-0.017-0.124,0-0.253-0.015-0.377
				c-0.075-0.622-0.595-1.095-1.187-1.088c-0.6,0.007-1.168,0.481-1.184,1.091c-0.033,1.259-0.033,2.519,0.001,3.778
				c0.017,0.618,0.584,1.092,1.18,1.091c0.607-0.002,1.11-0.459,1.188-1.087c0.018-0.145-0.037-0.327,0.032-0.433
				c0.138-0.211,0.309-0.473,0.522-0.542c0.185-0.06,0.503,0.059,0.657,0.208c0.138,0.133,0.18,0.413,0.183,0.63
				c0.016,1.238-0.006,2.477,0.013,3.715c0.013,0.905,0.945,1.463,1.745,1.059c0.455-0.23,0.646-0.61,0.641-1.13
				c-0.016-1.637-0.007-3.274-0.005-4.912c0.001-0.764,0.229-1.106,0.726-1.099c0.475,0.006,0.681,0.325,0.682,1.061
				c0.001,0.735-0.011,1.47,0.003,2.204c0.015,0.765,0.491,1.257,1.19,1.264c0.72,0.008,1.215-0.506,1.229-1.294
				c0.01-0.567-0.006-1.134,0.005-1.7c0.01-0.515,0.266-0.798,0.689-0.79c0.423,0.008,0.67,0.289,0.677,0.803
				c0.009,0.651-0.015,1.302,0.008,1.952c0.024,0.707,0.54,1.188,1.217,1.177c0.698-0.011,1.17-0.504,1.177-1.273
				C20.896,22.414,20.887,21.155,20.887,19.895z M24.691,21.23c0-0.713,0.007-1.426-0.002-2.139
				c-0.009-0.727-0.46-1.205-1.142-1.232c-0.712-0.028-1.243,0.386-1.259,1.108c-0.035,1.509-0.032,3.02,0.008,4.528
				c0.019,0.702,0.596,1.164,1.255,1.126c0.682-0.04,1.128-0.52,1.139-1.252C24.699,22.656,24.691,21.943,24.691,21.23z
				 M26.092,21.825c0,0.188-0.008,0.377,0.001,0.565c0.031,0.646,0.474,1.094,1.109,1.129c0.673,0.037,1.206-0.372,1.27-1.03
				c0.042-0.435,0.041-0.88-0.001-1.316c-0.062-0.65-0.619-1.09-1.262-1.051c-0.622,0.038-1.079,0.501-1.116,1.138
				C26.082,21.448,26.092,21.637,26.092,21.825z"/>
			<path fill="#F25F35" d="M82.139,19.287c1.435,0.686,2.147,1.797,2.129,3.363c-0.02,1.661-1.214,3.151-2.85,3.46
				c-0.695,0.131-1.417,0.143-2.128,0.163c-0.898,0.026-1.797,0.006-2.736,0.006c0-4.323,0-8.593,0-12.96
				c1.513,0.05,3.05-0.226,4.513,0.365c1.962,0.792,2.665,3.514,1.377,5.195C82.343,19.01,82.246,19.143,82.139,19.287z
				 M78.542,24.384c0.621,0,1.185,0.012,1.748-0.006c0.227-0.007,0.457-0.062,0.676-0.127c0.778-0.23,1.285-0.88,1.309-1.653
				c0.027-0.876-0.351-1.512-1.114-1.772c-0.837-0.286-1.707-0.333-2.619-0.296C78.542,21.824,78.542,23.071,78.542,24.384z
				 M78.531,18.848c0.961,0.036,1.921,0.125,2.429-0.839c0.376-0.713,0.399-1.526-0.117-2.203c-0.584-0.765-1.458-0.653-2.312-0.664
				C78.531,16.402,78.531,17.589,78.531,18.848z"/>
			<path fill="#F25F35" d="M52.123,23.217c0,0.803,0,1.527,0,2.26c-1.647,1.254-5.644,1.757-8.302-0.964
				c-2.424-2.481-2.575-6.294-0.347-9.046c2.303-2.845,6.281-3.02,8.657-1.474c0,0.712,0,1.442,0,2.274
				c-0.242-0.158-0.442-0.289-0.642-0.419c-1.595-1.035-3.267-1.29-5.005-0.408c-2.376,1.206-3.295,4.467-1.944,6.797
				c1.373,2.368,4.315,3.084,6.665,1.616C51.5,23.668,51.778,23.457,52.123,23.217z"/>
			<path fill="#F25F35" d="M62.164,26.26c-0.661,0-1.245,0-1.895,0c-0.017-0.312-0.033-0.61-0.051-0.943
				c-0.092,0.047-0.153,0.064-0.194,0.102c-1.749,1.608-5.199,1.117-6.031-2.195c-0.368-1.463-0.19-2.875,0.739-4.129
				c1.233-1.665,3.641-2.002,5.165-0.647c0.077,0.068,0.162,0.127,0.308,0.24c0.021-0.361,0.039-0.675,0.059-1.028
				c0.631,0,1.248,0,1.899,0C62.164,20.523,62.164,23.366,62.164,26.26z M60.1,21.975c0.001-1.342-1.031-2.461-2.269-2.46
				c-1.194,0.001-2.245,1.124-2.261,2.417c-0.016,1.323,1.038,2.454,2.281,2.448C59.074,24.373,60.099,23.278,60.1,21.975z"/>
			<path fill="#F25F35" d="M90.131,26.279c-2.568-0.005-4.431-1.918-4.421-4.538c0.009-2.424,2.017-4.36,4.51-4.347
				c2.501,0.013,4.47,1.98,4.477,4.471C94.704,24.374,92.727,26.285,90.131,26.279z M90.22,24.28
				c1.361-0.011,2.407-1.082,2.399-2.457c-0.008-1.326-1.164-2.502-2.452-2.422c-1.463,0.092-2.384,1.105-2.427,2.477
				C87.7,23.181,88.888,24.29,90.22,24.28z"/>
			<path fill="#F25F35" d="M95.71,17.656c0.848,0,1.592,0,2.426,0c0.581,0.752,1.205,1.56,1.892,2.449
				c0.659-0.84,1.286-1.639,1.929-2.457c0.789,0,1.581,0,2.497,0c-1.069,1.336-2.092,2.614-3.165,3.954
				c1.19,1.517,2.382,3.035,3.642,4.64c-0.879,0-1.622,0-2.419,0c-0.791-1-1.607-2.032-2.48-3.136
				c-0.882,1.084-1.722,2.117-2.553,3.139c-0.814,0-1.6,0-2.49,0c1.3-1.586,2.542-3.102,3.802-4.64
				C97.764,20.29,96.765,19.01,95.71,17.656z"/>
			<path fill="#F25F35" d="M68.796,20.169c-0.662,0-1.243,0-1.854,0c-0.061-0.109-0.121-0.241-0.203-0.359
				c-0.18-0.257-0.457-0.365-0.708-0.199c-0.18,0.119-0.347,0.373-0.371,0.584c-0.033,0.284,0.161,0.51,0.481,0.56
				c0.248,0.038,0.5,0.056,0.745,0.109c1.339,0.294,2.242,1.571,2.092,2.947c-0.156,1.434-1.282,2.459-2.709,2.467
				c-1.398,0.008-2.58-1.003-2.751-2.358c-0.015-0.119-0.002-0.241-0.002-0.385c0.607,0,1.168,0,1.754,0
				c0.052,0.124,0.097,0.263,0.165,0.388c0.231,0.425,0.626,0.605,1.048,0.489c0.382-0.105,0.692-0.508,0.681-0.886
				c-0.013-0.449-0.342-0.809-0.824-0.896c-0.226-0.041-0.457-0.062-0.68-0.115c-1.316-0.314-1.999-1.191-1.935-2.473
				c0.064-1.263,1.014-2.295,2.23-2.42c1.235-0.127,2.356,0.607,2.707,1.787C68.729,19.64,68.747,19.885,68.796,20.169z"/>
			<path fill="#F25F35" d="M73.465,15.127c0,1.008,0,1.947,0,2.94c0.372,0.024,0.714,0.046,1.084,0.07c0,0.574,0,1.109,0,1.707
				c-0.348,0.016-0.691,0.032-1.085,0.051c0,2.124,0,4.21,0,6.34c-0.648,0-1.241,0-1.894,0c0-2.098,0-4.183,0-6.327
				c-0.417-0.024-0.781-0.045-1.171-0.068c0-0.579,0-1.133,0-1.706c0.384-0.022,0.732-0.042,1.14-0.065c0-0.994,0-1.948,0-2.941
				C72.197,15.127,72.791,15.127,73.465,15.127z"/>
			<path fill="#FEFEFE" d="M20.887,19.895c0,1.259,0.009,2.519-0.003,3.778c-0.008,0.769-0.479,1.262-1.177,1.273
				c-0.677,0.011-1.193-0.47-1.217-1.177c-0.022-0.65,0.001-1.301-0.008-1.952c-0.007-0.514-0.254-0.796-0.677-0.803
				c-0.422-0.008-0.679,0.275-0.689,0.79c-0.011,0.567,0.006,1.134-0.005,1.7c-0.014,0.788-0.509,1.302-1.229,1.294
				c-0.699-0.008-1.175-0.5-1.19-1.264c-0.015-0.734-0.002-1.469-0.003-2.204c-0.001-0.736-0.207-1.055-0.682-1.061
				c-0.497-0.006-0.725,0.335-0.726,1.099c-0.002,1.637-0.011,3.275,0.005,4.912c0.005,0.52-0.186,0.9-0.641,1.13
				c-0.8,0.404-1.732-0.154-1.745-1.059c-0.018-1.238,0.004-2.477-0.013-3.715c-0.003-0.216-0.045-0.497-0.183-0.63
				c-0.155-0.149-0.472-0.267-0.657-0.208c-0.213,0.069-0.384,0.33-0.522,0.542c-0.069,0.106-0.014,0.287-0.032,0.433
				c-0.078,0.628-0.581,1.086-1.188,1.087c-0.596,0.002-1.164-0.473-1.18-1.091c-0.034-1.258-0.034-2.519-0.001-3.778
				c0.016-0.61,0.583-1.084,1.184-1.091c0.593-0.007,1.113,0.466,1.187,1.088c0.015,0.124-0.002,0.253,0.015,0.377
				c0.057,0.424,0.313,0.645,0.718,0.633c0.394-0.012,0.651-0.25,0.661-0.685c0.019-0.797-0.005-1.595,0.01-2.393
				c0.016-0.874,0.8-1.413,1.613-1.129c0.48,0.168,0.744,0.516,0.766,1.037c0.013,0.314-0.011,0.63,0.007,0.944
				c0.029,0.497,0.303,0.76,0.746,0.744c0.422-0.015,0.647-0.253,0.654-0.749c0.012-0.902-0.016-1.806,0.009-2.708
				c0.028-1.025,1.019-1.564,1.874-1.038c0.421,0.259,0.55,0.659,0.547,1.13c-0.006,1.112,0.001,2.225-0.004,3.337
				c-0.002,0.374,0.106,0.664,0.51,0.753c0.492,0.109,0.847-0.175,0.857-0.719c0.016-0.839-0.012-1.68,0.01-2.519
				c0.02-0.771,0.566-1.244,1.32-1.187c0.645,0.049,1.067,0.512,1.075,1.235C20.896,17.334,20.887,18.615,20.887,19.895z"/>
			<path fill="#FEFEFE" d="M24.691,21.23c0,0.713,0.008,1.426-0.002,2.139c-0.011,0.732-0.456,1.212-1.139,1.252
				c-0.659,0.038-1.237-0.424-1.255-1.126c-0.04-1.509-0.043-3.019-0.008-4.528c0.017-0.722,0.548-1.136,1.259-1.108
				c0.682,0.027,1.133,0.505,1.142,1.232C24.698,19.803,24.691,20.517,24.691,21.23z"/>
			<path fill="#FEFEFE" d="M26.092,21.825c0-0.188-0.009-0.377,0.002-0.565c0.036-0.637,0.494-1.1,1.116-1.138
				c0.644-0.039,1.201,0.401,1.262,1.051c0.041,0.435,0.043,0.881,0.001,1.316c-0.064,0.658-0.597,1.067-1.27,1.03
				c-0.635-0.035-1.078-0.483-1.109-1.129C26.084,22.202,26.092,22.013,26.092,21.825z"/>
		</g>
	</g>
</g>
</svg>
