<?xml version="1.0" encoding="utf-8"?>
<!-- Generator: Adobe Illustrator 20.1.0, SVG Export Plug-In . SVG Version: 6.00 Build 0)  -->
<svg version="1.1" id="logos" xmlns="http://www.w3.org/2000/svg" xmlns:xlink="http://www.w3.org/1999/xlink" x="0px" y="0px"
	 viewBox="0 0 125 40" enable-background="new 0 0 125 40" xml:space="preserve">
<g>
	<g>
		<path fill="#FFFFFF" d="M117.529,0.235H7.471c-3.175,0-7.238,2.393-7.238,7.381v24.769c0,4.988,4.063,7.381,7.238,7.381h110.057
			c3.175,0,7.238-2.393,7.238-7.381V7.615C124.767,2.627,120.704,0.235,117.529,0.235z"/>
		<path fill="#9AA0A6" d="M117.529,40H7.471c-1.748,0-3.603-0.701-4.962-1.876C1.365,37.133,0,35.334,0,32.385V7.615
			c0-2.949,1.365-4.749,2.51-5.739C3.868,0.701,5.723,0,7.471,0h110.057c1.748,0,3.603,0.701,4.962,1.876
			C123.635,2.867,125,4.666,125,7.615v24.769c0,2.949-1.365,4.749-2.509,5.739C121.132,39.299,119.277,40,117.529,40z M7.471,0.47
			c-2.909,0-7.005,2.217-7.005,7.146v24.769c0,4.929,4.096,7.146,7.005,7.146h110.057c2.909,0,7.005-2.217,7.005-7.146V7.615
			c0-4.929-4.096-7.146-7.005-7.146H7.471z"/>
	</g>
	<g>
		<path fill="#FAB908" d="M16.963,14.355c-0.708,0-1.282,0.574-1.282,1.282v7.345c0,0.708,0.574,1.282,1.282,1.282
			c0.708,0,1.282-0.574,1.282-1.282v-7.345C18.245,14.929,17.671,14.355,16.963,14.355z"/>
		<path fill="#FAB908" d="M16.963,9.031c-0.708,0-1.282,0.574-1.282,1.282v1.399c0,0.708,0.574,1.282,1.282,1.282
			c0.708,0,1.282-0.574,1.282-1.282v-1.399C18.245,9.605,17.671,9.031,16.963,9.031z"/>
		<path fill="#FAB908" d="M16.963,25.625c-0.708,0-1.282,0.574-1.282,1.282v1.399c0,0.708,0.574,1.282,1.282,1.282
			c0.708,0,1.282-0.574,1.282-1.282v-1.399C18.245,26.2,17.671,25.625,16.963,25.625z"/>
		<path fill="#EA4335" d="M12.377,21.506c-0.708,0-1.282,0.574-1.282,1.282v1.282c0,0.708,0.574,1.282,1.282,1.282
			s1.282-0.574,1.282-1.282v-1.282C13.659,22.08,13.085,21.506,12.377,21.506z"/>
		<path fill="#EA4335" d="M12.377,13.189c-0.708,0-1.282,0.574-1.282,1.282v4.469c0,0.708,0.574,1.282,1.282,1.282
			s1.282-0.574,1.282-1.282v-4.469C13.659,13.763,13.085,13.189,12.377,13.189z"/>
		<path fill="#34A853" d="M21.548,18.358c-0.708,0-1.282,0.574-1.282,1.282v4.43c0,0.708,0.574,1.282,1.282,1.282
			c0.708,0,1.282-0.574,1.282-1.282v-4.43C22.831,18.932,22.257,18.358,21.548,18.358z"/>
		<path fill="#34A853" d="M21.548,13.189c-0.708,0-1.282,0.574-1.282,1.282v1.282c0,0.708,0.574,1.282,1.282,1.282
			c0.708,0,1.282-0.574,1.282-1.282v-1.282C22.831,13.763,22.257,13.189,21.548,13.189z"/>
		<path fill="#4285F4" d="M25.94,17.386c-0.708,0-1.282,0.574-1.282,1.282v1.282c0,0.708,0.574,1.282,1.282,1.282
			c0.708,0,1.282-0.574,1.282-1.282v-1.282C27.222,17.961,26.648,17.386,25.94,17.386z"/>
		<path fill="#4285F4" d="M7.985,17.386c-0.708,0-1.282,0.574-1.282,1.282v1.282c0,0.708,0.574,1.282,1.282,1.282
			s1.282-0.574,1.282-1.282v-1.282C9.268,17.961,8.694,17.386,7.985,17.386z"/>
		<polygon fill="#5F6368" points="35.18,14.948 35.18,9.585 34.422,9.585 34.422,15.531 34.976,15.531 35.18,15.531 38.065,15.531 
			38.065,14.948 		"/>
		<rect x="39.144" y="11.13" fill="#5F6368" width="0.641" height="4.401"/>
		<circle fill="#5F6368" cx="39.518" cy="9.92" r="0.403"/>
		<path fill="#5F6368" d="M43.914,12.393h0.661c0,0-0.175-1.263-1.632-1.263s-1.613,0.991-1.613,1.263
			c0.311,1.477,2.584,0.855,2.584,1.904c0,0.408-0.272,0.758-1.049,0.758s-0.991-0.486-0.991-0.855h-0.719
			c0,0.369,0.369,1.331,1.71,1.331c1.341,0,1.71-0.768,1.71-1.273c-0.117-1.516-2.623-0.928-2.623-1.924
			c0-0.369,0.272-0.758,0.913-0.758C43.506,11.577,43.856,11.946,43.914,12.393z"/>
		<path fill="#5F6368" d="M47.295,14.996c-0.311,0-0.486-0.214-0.486-0.583c0-0.211,0-1.595,0-2.74h0.855V11.13h-0.855
			c0-0.594,0-1.03,0-1.03h-0.68c0,0,0,0.436,0,1.03h-0.836v0.544h0.836c0,1.096,0,2.408,0,2.682c0,0.486,0.233,1.176,0.991,1.176
			c0.233,0,0.622,0,0.622,0v-0.554C47.742,14.977,47.606,14.996,47.295,14.996z"/>
		<path fill="#5F6368" d="M52.308,12.937c0-0.894-0.622-1.807-1.691-1.807c-1.069,0-1.963,0.729-1.963,2.201
			s0.933,2.201,1.924,2.201s1.477-0.534,1.593-0.729l-0.311-0.35c0,0-0.447,0.602-1.244,0.602c-0.76,0-1.289-0.558-1.336-1.574
			h3.027C52.308,13.481,52.308,13.403,52.308,12.937z M49.297,12.976c0.096-0.808,0.528-1.418,1.281-1.418
			c0.86,0,1.049,0.797,1.049,1.418H49.297z"/>
		<path fill="#5F6368" d="M54.154,11.13h-0.7v4.401h0.7v-3.158c0,0,0.35-0.816,1.185-0.816c0.272,0,0.874,0.253,0.874,0.855
			c0,0.602,0,3.119,0,3.119h0.661c0,0,0-2.439,0-3.099s-0.525-1.302-1.321-1.302s-1.399,0.641-1.399,0.641V11.13z"/>
		<path fill="#5F6368" d="M66.279,11.13h-0.7v4.401h0.7v-3.158c0,0,0.35-0.816,1.185-0.816c0.272,0,0.874,0.253,0.874,0.855
			c0,0.602,0,3.119,0,3.119H69c0,0,0-2.439,0-3.099s-0.525-1.302-1.321-1.302s-1.399,0.641-1.399,0.641V11.13z"/>
		<path fill="#5F6368" d="M62.374,11.13c-0.602,0-1.924,0.427-1.924,2.201c0,1.219,0.622,2.201,1.924,2.201
			c1.302,0,1.943-1.01,1.943-2.201S63.714,11.13,62.374,11.13z M62.383,15.132c-0.69,0-1.292-0.661-1.292-1.802
			c0-1.433,0.874-1.773,1.292-1.773c0.593,0,1.35,0.427,1.35,1.671S63.073,15.132,62.383,15.132z"/>
		<path fill="#3C4043" d="M43.279,23.138c0.008,0.11,0.013,0.459,0.013,0.571c0,2.868-1.947,4.535-4.535,4.535
			s-4.685-2.098-4.685-4.685s2.098-4.685,4.685-4.685c1.257,0,2.398,0.496,3.24,1.302L41.2,20.981
			c-0.621-0.579-1.451-0.933-2.363-0.933c-1.924,0-3.483,1.572-3.483,3.512s1.559,3.512,3.483,3.512c1.636,0,2.9-0.874,3.162-2.671
			h-3.09v-1.264H43.279z"/>
		<path fill="#3C4043" d="M46.795,22.264c-1.698,0-3.075,1.351-3.075,3.017c0,1.666,1.377,3.017,3.075,3.017
			c1.698,0,3.075-1.351,3.075-3.017C49.87,23.614,48.493,22.264,46.795,22.264z M46.795,27.219c-0.99,0-1.793-0.861-1.793-1.924
			s0.803-1.924,1.793-1.924s1.793,0.861,1.793,1.924S47.785,27.219,46.795,27.219z"/>
		<path fill="#3C4043" d="M53.498,22.264c-1.698,0-3.075,1.351-3.075,3.017c0,1.666,1.377,3.017,3.075,3.017
			s3.075-1.351,3.075-3.017C56.573,23.614,55.197,22.264,53.498,22.264z M53.498,27.219c-0.99,0-1.793-0.861-1.793-1.924
			s0.803-1.924,1.793-1.924s1.793,0.861,1.793,1.924S54.488,27.219,53.498,27.219z"/>
		<path fill="#3C4043" d="M61.862,22.439v0.742c-0.498-0.565-1.195-0.917-1.966-0.917c-1.513,0-2.74,1.351-2.74,3.017
			c0,1.666,1.522,3.017,2.74,3.017c0.722,0,1.379-0.308,1.869-0.812c0,0,0,0.491,0,0.812c0,0.321-0.295,1.574-1.636,1.574
			c-1.108,0-1.623-1.098-1.623-1.098l-1.069,0.486c0,0,0.738,1.71,2.759,1.71c2.507,0,2.759-2.351,2.759-2.973
			c0-0.622,0-5.557,0-5.557H61.862z M60.129,27.219c-0.957,0-1.733-0.861-1.733-1.924s0.776-1.924,1.733-1.924
			s1.733,0.861,1.733,1.924S61.087,27.219,60.129,27.219z"/>
		<rect x="63.928" y="19.174" fill="#3C4043" width="1.302" height="8.977"/>
		<path fill="#3C4043" d="M67.395,26.194"/>
		<path fill="#3C4043" d="M68.98,27.219c-0.687,0-1.284-0.415-1.585-1.025l4.15-1.676c-0.393-1.222-1.444-2.254-2.82-2.254
			c-1.435,0-2.82,1.351-2.82,3.017c0,1.666,1.377,3.017,3.075,3.017c1.028,0,1.938-0.496,2.496-1.256l-1.005-0.679
			C70.15,26.878,69.603,27.219,68.98,27.219z M68.98,23.371c0.521,0,0.852,0.294,1.072,0.718l-2.864,1.206
			C67.188,24.233,67.99,23.371,68.98,23.371z"/>
		<path fill="#3C4043" d="M77.627,19.874c-0.389,0-3.012,0-3.012,0v8.278h0.991v-3.42c0.339,0,0.901,0,1.652,0
			c1.282,0,2.643-0.797,2.643-2.468C79.901,20.301,78.016,19.874,77.627,19.874z M77.375,23.877c-0.428,0-1.279,0-1.768,0v-3.07
			c0,0,1.244,0,1.904,0c0.661,0,1.457,0.447,1.457,1.457C78.968,23.274,77.996,23.877,77.375,23.877z"/>
		<path fill="#3C4043" d="M82.981,22.273c-1.594,0-2.886,1.348-2.886,3.012c0,1.663,1.292,3.012,2.886,3.012
			c1.594,0,2.886-1.348,2.886-3.012C85.866,23.622,84.574,22.273,82.981,22.273z M82.963,27.413c-1.067,0-1.931-0.947-1.931-2.116
			c0-1.169,0.865-2.116,1.931-2.116c1.067,0,1.931,0.947,1.931,2.116C84.895,26.466,84.03,27.413,82.963,27.413z"/>
		<path fill="#3C4043" d="M91.151,19.874v3.522c-0.483-0.684-1.221-1.123-2.05-1.123c-1.454,0-2.633,1.348-2.633,3.012
			c0,1.663,1.179,3.012,2.633,3.012c0.829,0,1.567-0.438,2.05-1.123v0.977h0.972v-8.278H91.151z M89.337,27.413
			c-1.067,0-1.931-0.947-1.931-2.116c0-1.169,0.865-2.116,1.931-2.116c1.067,0,1.815,0.947,1.815,2.116
			C91.151,26.466,90.403,27.413,89.337,27.413z"/>
		<path fill="#3C4043" d="M97.454,26.296c-0.32,0.665-0.948,1.117-1.672,1.117c-1.047,0-1.896-0.947-1.896-2.116
			c0-1.169,0.849-2.116,1.896-2.116c0.703,0,1.316,0.428,1.643,1.063l0.86-0.404c-0.481-0.933-1.414-1.566-2.486-1.566
			c-1.565,0-2.833,1.348-2.833,3.012c0,1.663,1.268,3.012,2.833,3.012c1.081,0,2.02-0.643,2.497-1.589L97.454,26.296z"/>
		<path fill="#3C4043" d="M101.314,22.273c-1.632,0-2.254,1.37-2.254,1.37l0.836,0.33c0,0,0.544-0.793,1.438-0.793
			c1.166,0,1.574,0.968,1.574,1.356c0,0.062,0,0.197,0,0.379c-0.244-0.143-0.794-0.379-1.768-0.379c-1.069,0-2.293,0.7-2.293,1.924
			c0,0.836,0.758,1.836,2.108,1.836c0.796,0,1.518-0.513,1.953-1.075c0,0.522,0,0.91,0,0.91h0.874c0,0,0-2.604,0-3.653
			S102.888,22.273,101.314,22.273z M102.888,26.033c-0.214,0.816-1.185,1.38-1.807,1.38c-0.622,0-1.244-0.33-1.244-0.933
			c0-0.777,0.738-1.282,1.555-1.282s1.496,0.466,1.496,0.466V26.033z"/>
		<path fill="#3C4043" d="M108.232,23.896l0.816-0.35c0,0-0.564-1.244-2.235-1.244c-1.049,0-2.099,0.738-2.099,1.671
			s0.933,1.36,1.963,1.613s1.477,0.486,1.477,0.933c0,0.447-0.311,0.913-1.321,0.913c-0.855,0-1.244-0.719-1.438-1.088l-0.855,0.369
			c0,0,0.602,1.555,2.293,1.555c1.691,0,2.293-1.03,2.293-1.865c-0.175-1.205-1.205-1.418-1.963-1.574s-1.457-0.33-1.457-0.874
			c0-0.408,0.389-0.797,1.185-0.797S108.037,23.585,108.232,23.896z"/>
		<path fill="#3C4043" d="M117.403,23.896l0.816-0.35c0,0-0.564-1.244-2.235-1.244c-1.049,0-2.099,0.738-2.099,1.671
			s0.933,1.36,1.963,1.613c1.03,0.253,1.477,0.486,1.477,0.933c0,0.447-0.311,0.913-1.321,0.913c-0.855,0-1.244-0.719-1.438-1.088
			l-0.855,0.369c0,0,0.602,1.555,2.293,1.555c1.691,0,2.293-1.03,2.293-1.865c-0.175-1.205-1.205-1.418-1.963-1.574
			s-1.457-0.33-1.457-0.874c0-0.408,0.389-0.797,1.185-0.797C116.859,23.158,117.209,23.585,117.403,23.896z"/>
		<path fill="#3C4043" d="M112.895,27.238c-0.836,0.35-1.282-0.175-1.282-0.68c0-0.261,0-1.81,0-3.245h1.399v-0.874h-1.399
			c0-0.962,0-1.71,0-1.71h-1.03c0,0,0,0.75,0,1.71h-0.952v0.874h0.952c0,1.344,0,2.778,0,3.128c0,0.7,0.505,2.157,2.623,1.613
			L112.895,27.238z"/>
	</g>
</g>
</svg>
