<?xml version="1.0" encoding="utf-8"?>
<!-- Generator: Adobe Illustrator 20.1.0, SVG Export Plug-In . SVG Version: 6.00 Build 0)  -->
<svg version="1.1" xmlns="http://www.w3.org/2000/svg" xmlns:xlink="http://www.w3.org/1999/xlink" x="0px" y="0px"
	 viewBox="0 0 125 40" enable-background="new 0 0 125 40" xml:space="preserve">
<g id="bg" display="none">
	<rect display="inline" fill="#FFFFFF" width="125" height="40"/>
</g>
<g id="icons">
	<g id="_x37_86L5f_1_">
		<g>
			<path fill="#F34D41" d="M13.865,6.345c7.077-0.227,13.498,6.246,13.498,13.711c0,6.77-5.669,13.535-13.71,13.606
				c-7.419,0.065-13.721-6.286-13.653-13.76C0.07,12.23,6.423,6.089,13.865,6.345z M4.49,19.977
				c-0.094,3.992,2.253,7.293,6.072,8.878c0.735,0.305,1.543,0.596,2.402,0.503c0.318-0.035,0.725,0.011,0.763-0.376
				c0.062-0.63,0.116-1.304-0.045-1.9c-0.136-0.505-0.77-0.292-1.19-0.371c-3.939-0.742-5.962-4.492-5.524-7.579
				c0.48-3.383,3.403-5.881,6.77-5.901c3.25-0.019,6.01,2.353,6.652,5.715c0.214,1.123,0.543,1.295,1.932,1.162
				c1.088-0.104,0.768-0.922,0.666-1.438c-0.99-5.02-4.664-8.156-9.505-7.988C8.011,10.872,4.342,15.277,4.49,19.977z M8.417,19.966
				c0.096,3.289,1.614,4.879,4.381,5.468c0.358,0.076,0.772,0.14,0.952-0.355c0.282-0.776-0.072-1.533-0.88-1.886
				c-0.292-0.128-0.593-0.245-0.861-0.414c-1.476-0.933-1.975-2.849-1.147-4.35c0.821-1.487,2.737-2.074,4.305-1.323
				c0.985,0.472,1.562,1.212,1.797,2.31c0.139,0.648,0.995,0.918,1.74,0.66c0.706-0.245,0.452-0.807,0.327-1.273
				c-0.574-2.125-2.713-4.6-6.243-4.06C10.162,15.144,8.172,17.718,8.417,19.966z"/>
			<path fill="#343434" d="M93.475,25.581c-1.479-0.026-3.158-0.932-4.076-2.934c-1.018-2.219-0.833-4.392,0.777-6.279
				c1.417-1.66,3.281-2.139,5.385-1.584c0.817,0.216,1.522,0.662,2.082,1.309c0.201,0.232,0.502,0.473,0.147,0.795
				c-0.241,0.218-0.548,0.385-0.865,0.192c-0.325-0.197-0.59-0.494-0.914-0.694c-1.722-1.065-3.96-0.546-5.05,1.165
				c-0.853,1.34-0.932,2.801-0.421,4.241c0.885,2.492,3.654,3.321,5.786,1.798c0.207-0.148,0.371-0.353,0.567-0.516
				c0.339-0.282,0.595,0.02,0.845,0.166c0.409,0.239,0.204,0.52-0.004,0.782C96.93,25.032,95.693,25.572,93.475,25.581z"/>
			<path fill="#343434" d="M39.873,20.153c0-1.538,0.015-3.075-0.008-4.612c-0.008-0.571,0.212-0.8,0.781-0.789
				c1.217,0.023,2.437-0.042,3.651,0.029c1.744,0.102,2.864,1.244,2.978,2.915c0.118,1.745-0.743,2.927-2.438,3.411
				c-0.57,0.163-1.14,0.133-1.714,0.14c-1.982,0.024-1.982,0.021-1.984,2.084c0,0.128,0.026,0.263-0.004,0.383
				c-0.153,0.598,0.432,1.681-0.576,1.696c-1.26,0.019-0.588-1.17-0.654-1.799c-0.119-1.141-0.034-2.303-0.034-3.456
				C39.871,20.153,39.872,20.153,39.873,20.153z M41.142,17.653c0,0.713-0.007,1.22,0.002,1.727c0.006,0.344,0.12,0.637,0.528,0.634
				c0.945-0.007,1.902,0.144,2.827-0.188c0.971-0.348,1.394-0.99,1.327-2.028c-0.06-0.939-0.511-1.522-1.455-1.75
				c-0.424-0.102-0.88-0.099-1.321-0.095C40.802,15.973,41.176,15.714,41.142,17.653z"/>
			<path fill="#343434" d="M75.539,25.581c-2.114-0.013-3.516-1.159-3.94-3.112c-0.405-1.866,0.57-3.93,2.206-4.667
				c2.412-1.087,5.122,0.763,5.052,3.427c-0.015,0.577-0.233,0.798-0.799,0.79c-1.344-0.018-2.689-0.014-4.033,0.002
				c-0.353,0.004-0.828-0.155-0.988,0.306c-0.129,0.371,0.07,0.731,0.298,1.065c0.71,1.039,1.705,1.274,2.861,1.055
				c0.307-0.058,0.61-0.178,0.895-0.313c0.41-0.195,0.878-0.489,1.13,0.088c0.189,0.432-0.293,0.649-0.61,0.841
				C76.936,25.472,76.191,25.628,75.539,25.581z M77.61,20.867c-0.5-1.78-0.93-2.221-2.172-2.283
				c-1.113-0.055-2.026,0.523-2.373,1.54c-0.169,0.496-0.096,0.894,0.565,0.872C74.951,20.95,76.283,21.132,77.61,20.867z"/>
			<path fill="#343434" d="M65.744,21.455c1.214-1.149,2.224-2.101,3.229-3.059c0.727-0.693,0.724-0.697,2.135-0.557
				c-0.914,0.952-1.719,1.842-2.582,2.672c-0.515,0.495-0.569,0.868-0.078,1.435c0.912,1.054,1.744,2.177,2.653,3.326
				c-1.305,0.147-1.305,0.147-4.071-3.118c-0.952,0.476-1.417,1.204-1.301,2.305c0.042,0.398,0.166,0.955-0.531,1.007
				c-0.709,0.052-0.636-0.476-0.637-0.91c-0.007-3.002-0.004-6.003-0.003-9.005c0-0.387-0.01-0.765,0.547-0.793
				c0.711-0.036,0.637,0.451,0.637,0.897C65.745,17.506,65.744,19.357,65.744,21.455z"/>
			<path fill="#343434" d="M55.339,21.646c-0.033,2.342-1.584,3.949-3.794,3.933c-2.129-0.015-3.772-1.788-3.732-4.027
				c0.042-2.395,1.729-4.139,3.933-4.067C53.873,17.555,55.372,19.291,55.339,21.646z M49.181,21.909
				c-0.012-0.188-0.015,0.069,0.024,0.318c0.207,1.324,1.033,2.148,2.207,2.215c1.298,0.074,2.003-0.51,2.472-1.879
				c0.314-0.917,0.138-1.768-0.212-2.58c-0.343-0.794-0.974-1.32-1.907-1.355c-0.973-0.037-1.708,0.336-2.194,1.204
				C49.281,20.348,49.149,20.886,49.181,21.909z"/>
			<path fill="#343434" d="M104.107,21.379c0.035-2.56-1.202-3.371-3.233-2.398c-0.228,0.109-0.422,0.292-0.653,0.393
				c-0.183,0.081-0.36-0.008-0.493-0.167c-0.193-0.23-0.182-0.455,0.002-0.678c0.749-0.905,2.616-1.311,3.915-0.852
				c1.275,0.45,1.697,1.061,1.726,2.632c0.027,1.469,0.01,2.939,0.003,4.408c-0.002,0.398-0.236,1.001-0.57,0.712
				c-0.86-0.745-1.498-0.057-2.227,0.093c-1.782,0.367-3.274-0.553-3.44-2.113c-0.179-1.682,0.817-2.808,2.527-2.886
				C102.526,20.483,103.302,20.703,104.107,21.379z M104.186,23.048c-0.003-1.013-0.677-1.618-1.859-1.665
				c-1.098-0.044-1.932,0.624-1.981,1.588c-0.05,0.99,0.697,1.717,1.807,1.759C103.389,24.777,104.189,24.114,104.186,23.048z"/>
			<path fill="#343434" d="M109.64,25.581c-0.795,0.046-1.628-0.217-2.359-0.792c-0.281-0.221-0.389-0.473-0.146-0.808
				c0.235-0.323,0.47-0.351,0.781-0.107c0.807,0.633,1.726,0.761,2.712,0.579c0.572-0.106,0.924-0.45,0.982-1.016
				c0.051-0.501-0.235-0.855-0.7-1.02c-0.718-0.254-1.455-0.454-2.169-0.717c-1.152-0.424-1.764-1.167-1.721-2.03
				c0.044-0.88,0.929-1.866,1.969-2.103c1.105-0.252,2.153-0.026,3.114,0.564c0.334,0.205,0.634,0.448,0.305,0.912
				c-0.273,0.385-0.515,0.194-0.774,0.011c-0.665-0.47-1.413-0.545-2.193-0.456c-0.554,0.064-0.993,0.31-1.084,0.901
				c-0.096,0.628,0.309,0.918,0.848,1.073c0.55,0.159,1.108,0.291,1.648,0.476c1.431,0.49,2.17,1.366,2.062,2.405
				c-0.129,1.238-1.193,2.059-2.756,2.126C110.03,25.586,109.902,25.581,109.64,25.581z"/>
			<path fill="#343434" d="M121.898,25.587c-0.745,0.046-1.599-0.161-2.354-0.715c-0.349-0.256-0.533-0.562-0.228-0.962
				c0.272-0.358,0.544-0.157,0.811,0.032c0.715,0.505,1.514,0.66,2.372,0.557c0.608-0.073,1.141-0.27,1.273-0.956
				c0.142-0.742-0.381-1.034-0.944-1.234c-0.66-0.235-1.355-0.374-2.006-0.627c-1.258-0.489-1.695-1.082-1.629-2.08
				c0.06-0.903,0.743-1.7,1.82-1.99c1.246-0.336,2.41-0.102,3.427,0.713c0.218,0.175,0.243,0.451,0.108,0.696
				c-0.142,0.257-0.357,0.33-0.626,0.154c-0.543-0.356-1.112-0.636-1.787-0.607c-0.446,0.019-0.888,0.012-1.276,0.314
				c-0.637,0.497-0.621,1.119,0.093,1.514c0.332,0.184,0.703,0.306,1.066,0.426c0.241,0.079,0.507,0.083,0.751,0.156
				c1.7,0.507,2.392,1.347,2.2,2.653C124.793,24.827,123.692,25.571,121.898,25.587z"/>
			<path fill="#343434" d="M116.659,25.575c-1.236,0.017-1.806-0.463-1.914-1.742c-0.092-1.08-0.024-2.174-0.038-3.261
				c-0.011-0.782,0.266-1.67-0.986-1.884c-0.375-0.064-0.384-0.806-0.014-0.903c0.852-0.224,1.12-0.671,1.012-1.487
				c-0.059-0.443,0.14-0.733,0.637-0.734c0.486-0.002,0.704,0.261,0.659,0.717c-0.089,0.904,0.126,1.485,1.211,1.408
				c0.233-0.017,0.342,0.334,0.316,0.613c-0.026,0.28-0.154,0.533-0.447,0.503c-1.055-0.108-1.105,0.533-1.081,1.318
				c0.034,1.087,0.007,2.175,0.012,3.263c0.003,0.655,0.187,1.155,0.994,1.026c0.376-0.06,0.65,0.053,0.677,0.443
				c0.025,0.356-0.215,0.578-0.559,0.656C116.952,25.552,116.759,25.562,116.659,25.575z"/>
			<path fill="#343434" d="M82.698,25.583c-1.268-0.024-1.834-0.556-1.904-1.816c-0.067-1.206-0.013-2.419-0.026-3.629
				c-0.006-0.605,0.175-1.251-0.824-1.381c-0.534-0.069-0.578-0.867-0.122-0.978c0.924-0.225,1.016-0.75,0.954-1.497
				c-0.038-0.452,0.153-0.72,0.646-0.721c0.496-0.002,0.673,0.264,0.64,0.718c-0.055,0.762,0.002,1.419,1.034,1.391
				c0.278-0.007,0.437,0.251,0.486,0.509c0.056,0.296-0.17,0.571-0.386,0.571c-1.278,0.001-1.156,0.875-1.14,1.713
				c0.014,0.764,0.004,1.528,0.003,2.293c-0.001,0.918-0.079,1.888,1.349,1.675c0.104-0.015,0.3,0.208,0.36,0.358
				c0.114,0.283-0.086,0.514-0.308,0.612C83.179,25.525,82.853,25.549,82.698,25.583z"/>
			<path fill="#343434" d="M60.001,25.578c-2.276-0.03-3.924-2-3.688-4.406c0.24-2.442,2.206-4.061,4.448-3.644
				c0.635,0.118,1.215,0.383,1.68,0.85c0.25,0.251,0.331,0.526,0.045,0.822c-0.202,0.208-0.419,0.257-0.672,0.109
				c-0.055-0.032-0.1-0.079-0.15-0.119c-0.901-0.723-1.88-0.813-2.832-0.186c-1.073,0.707-1.326,1.809-1.197,3.022
				c0.214,2.018,1.89,2.962,3.726,2.1c0.171-0.08,0.318-0.212,0.471-0.326c0.253-0.19,0.452-0.097,0.654,0.096
				c0.307,0.294,0.2,0.57-0.032,0.825C61.955,25.27,61.012,25.592,60.001,25.578z"/>
			<path fill="#FDFCFC" d="M4.49,19.977c-0.149-4.7,3.521-9.105,8.992-9.295c4.841-0.168,8.515,2.968,9.505,7.988
				c0.102,0.516,0.422,1.334-0.666,1.438c-1.389,0.133-1.717-0.039-1.932-1.162c-0.642-3.363-3.402-5.734-6.652-5.715
				c-3.367,0.02-6.29,2.518-6.77,5.901c-0.438,3.086,1.585,6.836,5.524,7.579c0.42,0.079,1.054-0.134,1.19,0.371
				c0.161,0.596,0.107,1.27,0.045,1.9c-0.038,0.386-0.446,0.341-0.763,0.376c-0.859,0.094-1.667-0.198-2.402-0.503
				C6.743,27.271,4.396,23.969,4.49,19.977z"/>
			<path fill="#FDFCFC" d="M8.417,19.966c-0.245-2.247,1.745-4.822,4.371-5.224c3.53-0.54,5.669,1.935,6.243,4.06
				c0.126,0.466,0.379,1.029-0.327,1.273c-0.746,0.258-1.602-0.012-1.74-0.66c-0.235-1.097-0.812-1.838-1.797-2.31
				c-1.567-0.751-3.484-0.164-4.305,1.323c-0.828,1.5-0.329,3.417,1.147,4.35c0.267,0.169,0.569,0.287,0.861,0.414
				c0.808,0.354,1.161,1.11,0.88,1.886c-0.18,0.495-0.593,0.431-0.952,0.355C10.031,24.845,8.513,23.255,8.417,19.966z"/>
		</g>
	</g>
</g>
</svg>
